<svg width="213" height="52" viewBox="0 0 213 52" fill="none" xmlns="http://www.w3.org/2000/svg">
<path d="M76.077 27.256H63.3539V33.9907H77.854V38.6997H58.0052V12.5071H77.2143V17.145H63.3539V22.7069H76.077V27.256ZM99.6944 12.5071V17.145H91.858V38.6997H86.3493V17.145H78.4773V12.5071H99.6944ZM117.075 38.6997V27.0072H106.839V38.6997H101.42V12.5071H106.839V22.4937H117.075V12.5071H122.512V38.6997H117.075ZM158.179 38.6997H151.142L143.057 27.256L140.445 29.9392V38.6997H135.06V12.5071H140.445V23.2933L150.556 12.5071H157.628L146.895 23.2933L158.179 38.6997ZM159.389 12.5071H164.826V38.6997H159.389V12.5071ZM179.612 29.2817H174.05V38.6997H168.613V12.5071H180.021C182.651 12.5071 184.747 13.1824 186.311 14.5329C187.875 15.8834 188.657 17.9743 188.657 20.8056C188.657 23.8975 187.875 26.0832 186.311 27.3626C184.747 28.642 182.514 29.2817 179.612 29.2817ZM182.171 23.8264C182.882 23.1986 183.237 22.2035 183.237 20.8411C183.237 19.4788 182.876 18.5074 182.153 17.9269C181.442 17.3464 180.441 17.0562 179.15 17.0562H174.05V24.7682H179.15C180.441 24.7682 181.448 24.4543 182.171 23.8264ZM206.801 28.6065V12.5071H212.363V28.6065C212.363 31.3904 211.931 33.5583 211.066 35.1102C209.455 37.9534 206.381 39.375 201.843 39.375C197.306 39.375 194.226 37.9534 192.603 35.1102C191.738 33.5583 191.306 31.3904 191.306 28.6065V12.5071H196.868V28.6065C196.868 30.4072 197.081 31.7221 197.508 32.5514C198.171 34.0203 199.616 34.7548 201.843 34.7548C204.059 34.7548 205.498 34.0203 206.161 32.5514C206.588 31.7221 206.801 30.4072 206.801 28.6065Z" fill="#828EFF"/>
<circle cx="128.9" cy="26.1846" r="2.91606" fill="#828EFF"/>
<path fill-rule="evenodd" clip-rule="evenodd" d="M50.7885 23.8671C51.7997 24.8783 51.7997 26.5179 50.7885 27.5291L27.6969 50.6207C26.6856 51.6319 25.0461 51.6319 24.0349 50.6207L0.943298 27.5291C-0.0679283 26.5178 -0.0679245 24.8783 0.943302 23.8671L24.0349 0.775509C25.0461 -0.235719 26.6856 -0.235715 27.6969 0.775513L50.7885 23.8671ZM39.1221 16.3401L25.9887 3.20673C25.8985 3.11645 25.7521 3.11645 25.6618 3.20673L18.7894 10.0792C19.8534 9.9531 20.8828 10.0393 21.9307 10.3803C23.4794 10.8842 25.0007 11.9239 26.7028 13.5017C26.8115 13.5697 26.9142 13.651 27.0087 13.7455L37.8896 24.6264C37.9155 24.6524 37.9405 24.6789 37.9644 24.706C38.9389 23.5282 39.612 22.4407 39.9674 21.3951C40.5192 19.7716 40.3278 18.1791 39.0923 16.3603L39.1221 16.3401ZM41.7066 18.9246L48.3907 25.6086C48.4809 25.6989 48.4809 25.8453 48.3907 25.9356L35.3761 38.9502C32.9484 39.9195 31.1036 39.9818 29.3589 39.3265C28.5735 39.0315 27.7908 38.5852 26.9731 37.9833C26.9851 37.972 26.9969 37.9605 27.0087 37.9487L37.8896 27.0678C37.9709 26.9864 38.0425 26.899 38.1042 26.807C39.672 25.1271 40.8266 23.5133 41.383 21.8762C41.7191 20.8873 41.8314 19.9077 41.7066 18.9246ZM35.8156 27.0274L32.9553 29.8877V21.8065L36.8324 25.6836C36.8953 25.7465 36.9144 25.8365 36.8897 25.9159C36.5523 26.2733 36.1903 26.6396 35.8043 27.0158L35.8156 27.0274ZM25.6809 36.9329C25.6362 36.8935 25.5914 36.8536 25.5464 36.8133L21.7547 33.0217H29.8213L25.9515 36.8915C25.8782 36.9648 25.768 36.9786 25.6809 36.9329ZM28.8531 40.6732C27.5611 40.188 26.3237 39.3759 25.0465 38.2874C24.8732 38.205 24.7108 38.0921 24.5674 37.9487L13.6864 27.0678C13.6682 27.0495 13.6504 27.031 13.6332 27.0121C13.0934 27.6988 12.6658 28.3554 12.3424 29.016C11.5751 30.5833 11.3712 32.2245 11.7696 34.4453L25.6618 48.3375C25.7521 48.4278 25.8985 48.4278 25.9887 48.3375L33.2664 41.0599C31.6992 41.3301 30.2633 41.2028 28.8531 40.6732ZM14.685 25.7828C14.9302 25.5155 15.191 25.2416 15.4678 24.9595L16.101 24.3262C16.3676 24.0643 16.6469 23.7949 16.9393 23.5169L16.9252 23.5021L18.875 21.5522V30.142L14.7436 26.0106C14.6819 25.9489 14.6624 25.861 14.685 25.7828ZM11.0504 28.3835C11.5864 27.2887 12.3542 26.2343 13.3368 25.1289C13.42 24.9468 13.5366 24.7763 13.6864 24.6264L24.5674 13.7455C24.5901 13.7228 24.6133 13.7008 24.6369 13.6796C23.4695 12.7227 22.4477 12.1208 21.4682 11.802C20.0203 11.331 18.5724 11.4505 16.722 12.1465L3.25989 25.6086C3.16962 25.6989 3.16961 25.8453 3.25989 25.9356L10.1405 32.8162C10.0774 31.1922 10.3713 29.7705 11.0504 28.3835ZM26.7773 15.6285L26.7625 15.6431C26.4439 15.321 26.1363 15.0204 25.8386 14.7406C25.764 14.7239 25.6827 14.7446 25.6246 14.8027L21.4859 18.9414H30.0902L26.7773 15.6285ZM49.4478 26.9928C50.122 26.3186 50.122 25.2256 49.4478 24.5514L27.0459 2.14953C26.3718 1.47538 25.2788 1.47538 24.6046 2.14954L2.2027 24.5514C1.52855 25.2256 1.52855 26.3186 2.2027 26.9928L24.6046 49.3947C25.2788 50.0688 26.3718 50.0688 27.0459 49.3947L49.4478 26.9928ZM21.1767 20.3799H30.6536C31.1303 20.3799 31.5168 20.7664 31.5168 21.2431V30.72C31.5168 31.1967 31.1303 31.5831 30.6536 31.5831H21.1767C20.7 31.5831 20.3136 31.1967 20.3136 30.72V21.2431C20.3136 20.7664 20.7 20.3799 21.1767 20.3799ZM21.4783 22.1039C21.4783 21.7861 21.7359 21.5285 22.0537 21.5285H29.9094C30.2272 21.5285 30.4849 21.7861 30.4849 22.1039L30.4849 29.9597C30.4849 30.2775 30.2272 30.5351 29.9094 30.5351H22.0537C21.7359 30.5351 21.4783 30.2775 21.4783 29.9597V22.1039Z" fill="#828EFF"/>
<path d="M23.2283 23.0303C23.0893 23.0303 22.9766 23.143 22.9766 23.282L22.9766 28.783C22.9766 28.922 23.0893 29.0347 23.2283 29.0347L28.7293 29.0347C28.8683 29.0347 28.981 28.922 28.981 28.783L28.981 23.282C28.981 23.143 28.8683 23.0303 28.7293 23.0303L23.2283 23.0303Z" fill="#CFB1FB"/>
</svg>
